<mxfile host="65bd71144e">
    <diagram name="Страница — 1" id="eL_AwrfxETXE9ANNwmeX">
        <mxGraphModel dx="2311" dy="1988" grid="1" gridSize="10" guides="1" tooltips="1" connect="1" arrows="1" fold="1" page="1" pageScale="1" pageWidth="827" pageHeight="1169" math="0" shadow="0">
            <root>
                <mxCell id="0"/>
                <mxCell id="1" parent="0"/>
                <mxCell id="ZCTDzKZPOZG22ShxwnUD-1" value="Game_Sprite" style="swimlane;fontStyle=1;align=center;verticalAlign=top;childLayout=stackLayout;horizontal=1;startSize=26;horizontalStack=0;resizeParent=1;resizeParentMax=0;resizeLast=0;collapsible=1;marginBottom=0;whiteSpace=wrap;html=1;fillColor=#60a917;fontColor=#ffffff;strokeColor=#2D7600;" parent="1" vertex="1">
                    <mxGeometry x="210" y="110" width="170" height="120" as="geometry"/>
                </mxCell>
                <mxCell id="ZCTDzKZPOZG22ShxwnUD-2" value="pos: pygame.math.Vector2&lt;br&gt;&lt;div&gt;&lt;font style=&quot;&quot;&gt;&lt;span style=&quot;background-color: transparent;&quot;&gt;&lt;font style=&quot;color: light-dark(rgb(192, 192, 192), rgb(255, 255, 255));&quot;&gt;src: string&lt;/font&gt;&lt;/span&gt;&lt;br&gt;&lt;/font&gt;&lt;/div&gt;&lt;div&gt;&lt;font style=&quot;color: light-dark(rgb(192, 192, 192), rgb(255, 255, 255));&quot;&gt;image: pygame.Surface&lt;/font&gt;&lt;/div&gt;&lt;div&gt;&lt;font style=&quot;color: light-dark(rgb(192, 192, 192), rgb(255, 255, 255));&quot;&gt;rect: pygame.Rect&lt;/font&gt;&lt;/div&gt;" style="text;strokeColor=none;fillColor=none;align=left;verticalAlign=top;spacingLeft=4;spacingRight=4;overflow=hidden;rotatable=0;points=[[0,0.5],[1,0.5]];portConstraint=eastwest;whiteSpace=wrap;html=1;" parent="ZCTDzKZPOZG22ShxwnUD-1" vertex="1">
                    <mxGeometry y="26" width="170" height="64" as="geometry"/>
                </mxCell>
                <mxCell id="ZCTDzKZPOZG22ShxwnUD-3" value="" style="line;strokeWidth=1;fillColor=none;align=left;verticalAlign=middle;spacingTop=-1;spacingLeft=3;spacingRight=3;rotatable=0;labelPosition=right;points=[];portConstraint=eastwest;strokeColor=inherit;" parent="ZCTDzKZPOZG22ShxwnUD-1" vertex="1">
                    <mxGeometry y="90" width="170" height="8" as="geometry"/>
                </mxCell>
                <mxCell id="ZCTDzKZPOZG22ShxwnUD-4" value="draw(pygame.Surface)&lt;div&gt;&lt;/div&gt;" style="text;strokeColor=none;fillColor=none;align=left;verticalAlign=top;spacingLeft=4;spacingRight=4;overflow=hidden;rotatable=0;points=[[0,0.5],[1,0.5]];portConstraint=eastwest;whiteSpace=wrap;html=1;" parent="ZCTDzKZPOZG22ShxwnUD-1" vertex="1">
                    <mxGeometry y="98" width="170" height="22" as="geometry"/>
                </mxCell>
                <mxCell id="ZCTDzKZPOZG22ShxwnUD-9" value="Hero" style="swimlane;fontStyle=1;align=center;verticalAlign=top;childLayout=stackLayout;horizontal=1;startSize=26;horizontalStack=0;resizeParent=1;resizeParentMax=0;resizeLast=0;collapsible=1;marginBottom=0;whiteSpace=wrap;html=1;" parent="1" vertex="1">
                    <mxGeometry x="-110" y="600" width="200" height="160" as="geometry"/>
                </mxCell>
                <mxCell id="ZCTDzKZPOZG22ShxwnUD-10" value="hp: int&lt;div&gt;active_collectables: Collectables[]&lt;/div&gt;&lt;div&gt;spawnpoint: pygame.math.Vector2&lt;/div&gt;" style="text;strokeColor=#2D7600;fillColor=#60a917;align=left;verticalAlign=top;spacingLeft=4;spacingRight=4;overflow=hidden;rotatable=0;points=[[0,0.5],[1,0.5]];portConstraint=eastwest;whiteSpace=wrap;html=1;fontColor=#ffffff;" parent="ZCTDzKZPOZG22ShxwnUD-9" vertex="1">
                    <mxGeometry y="26" width="200" height="54" as="geometry"/>
                </mxCell>
                <mxCell id="ZCTDzKZPOZG22ShxwnUD-11" value="" style="line;strokeWidth=1;align=left;verticalAlign=middle;spacingTop=-1;spacingLeft=3;spacingRight=3;rotatable=0;labelPosition=right;points=[];portConstraint=eastwest;" parent="ZCTDzKZPOZG22ShxwnUD-9" vertex="1">
                    <mxGeometry y="80" width="200" height="8" as="geometry"/>
                </mxCell>
                <mxCell id="ZCTDzKZPOZG22ShxwnUD-12" value="shoot()&lt;div&gt;death()&lt;br&gt;change_spawnpoint()&lt;/div&gt;" style="text;align=left;verticalAlign=top;spacingLeft=4;spacingRight=4;overflow=hidden;rotatable=0;points=[[0,0.5],[1,0.5]];portConstraint=eastwest;whiteSpace=wrap;html=1;" parent="ZCTDzKZPOZG22ShxwnUD-9" vertex="1">
                    <mxGeometry y="88" width="200" height="72" as="geometry"/>
                </mxCell>
                <mxCell id="ZCTDzKZPOZG22ShxwnUD-13" value="Entity" style="swimlane;fontStyle=1;align=center;verticalAlign=top;childLayout=stackLayout;horizontal=1;startSize=26;horizontalStack=0;resizeParent=1;resizeParentMax=0;resizeLast=0;collapsible=1;marginBottom=0;whiteSpace=wrap;html=1;fillColor=#60a917;fontColor=#ffffff;strokeColor=#2D7600;" parent="1" vertex="1">
                    <mxGeometry x="-230" y="360" width="160" height="160" as="geometry"/>
                </mxCell>
                <mxCell id="ZCTDzKZPOZG22ShxwnUD-14" value="&lt;font&gt;&lt;span&gt;speed: float&lt;/span&gt;&lt;br&gt;strategy: Move_Strategy&lt;/font&gt;&lt;div&gt;&lt;font&gt;angle: int&lt;br&gt;angle_dict: dict&lt;br&gt;is_mirrored: bool&lt;/font&gt;&lt;/div&gt;" style="text;strokeColor=none;fillColor=none;align=left;verticalAlign=top;spacingLeft=4;spacingRight=4;overflow=hidden;rotatable=0;points=[[0,0.5],[1,0.5]];portConstraint=eastwest;whiteSpace=wrap;html=1;" parent="ZCTDzKZPOZG22ShxwnUD-13" vertex="1">
                    <mxGeometry y="26" width="160" height="84" as="geometry"/>
                </mxCell>
                <mxCell id="ZCTDzKZPOZG22ShxwnUD-15" value="" style="line;strokeWidth=1;fillColor=none;align=left;verticalAlign=middle;spacingTop=-1;spacingLeft=3;spacingRight=3;rotatable=0;labelPosition=right;points=[];portConstraint=eastwest;strokeColor=inherit;" parent="ZCTDzKZPOZG22ShxwnUD-13" vertex="1">
                    <mxGeometry y="110" width="160" height="8" as="geometry"/>
                </mxCell>
                <mxCell id="ZCTDzKZPOZG22ShxwnUD-16" value="move(Obstacles[])&lt;br&gt;rotate(string)" style="text;strokeColor=none;fillColor=none;align=left;verticalAlign=top;spacingLeft=4;spacingRight=4;overflow=hidden;rotatable=0;points=[[0,0.5],[1,0.5]];portConstraint=eastwest;whiteSpace=wrap;html=1;" parent="ZCTDzKZPOZG22ShxwnUD-13" vertex="1">
                    <mxGeometry y="118" width="160" height="42" as="geometry"/>
                </mxCell>
                <mxCell id="ZCTDzKZPOZG22ShxwnUD-17" value="" style="endArrow=block;endSize=16;endFill=0;html=1;rounded=0;edgeStyle=elbowEdgeStyle;elbow=vertical;" parent="1" source="ZCTDzKZPOZG22ShxwnUD-4" target="ZCTDzKZPOZG22ShxwnUD-13" edge="1">
                    <mxGeometry width="160" relative="1" as="geometry">
                        <mxPoint x="330" y="300" as="sourcePoint"/>
                        <mxPoint x="490" y="300" as="targetPoint"/>
                    </mxGeometry>
                </mxCell>
                <mxCell id="ZCTDzKZPOZG22ShxwnUD-18" value="Enemy" style="swimlane;fontStyle=1;align=center;verticalAlign=top;childLayout=stackLayout;horizontal=1;startSize=26;horizontalStack=0;resizeParent=1;resizeParentMax=0;resizeLast=0;collapsible=1;marginBottom=0;whiteSpace=wrap;html=1;swimlaneLine=1;" parent="1" vertex="1">
                    <mxGeometry x="150" y="600" width="160" height="86" as="geometry"/>
                </mxCell>
                <mxCell id="ZCTDzKZPOZG22ShxwnUD-19" value="+ field: type" style="text;strokeColor=none;fillColor=none;align=left;verticalAlign=top;spacingLeft=4;spacingRight=4;overflow=hidden;rotatable=0;points=[[0,0.5],[1,0.5]];portConstraint=eastwest;whiteSpace=wrap;html=1;" parent="ZCTDzKZPOZG22ShxwnUD-18" vertex="1">
                    <mxGeometry y="26" width="160" height="26" as="geometry"/>
                </mxCell>
                <mxCell id="ZCTDzKZPOZG22ShxwnUD-20" value="" style="line;strokeWidth=1;fillColor=none;align=left;verticalAlign=middle;spacingTop=-1;spacingLeft=3;spacingRight=3;rotatable=0;labelPosition=right;points=[];portConstraint=eastwest;strokeColor=inherit;" parent="ZCTDzKZPOZG22ShxwnUD-18" vertex="1">
                    <mxGeometry y="52" width="160" height="8" as="geometry"/>
                </mxCell>
                <mxCell id="ZCTDzKZPOZG22ShxwnUD-21" value="level_up()" style="text;strokeColor=none;fillColor=none;align=left;verticalAlign=top;spacingLeft=4;spacingRight=4;overflow=hidden;rotatable=0;points=[[0,0.5],[1,0.5]];portConstraint=eastwest;whiteSpace=wrap;html=1;" parent="ZCTDzKZPOZG22ShxwnUD-18" vertex="1">
                    <mxGeometry y="60" width="160" height="26" as="geometry"/>
                </mxCell>
                <mxCell id="ZCTDzKZPOZG22ShxwnUD-22" value="" style="endArrow=block;endSize=16;endFill=0;html=1;rounded=0;edgeStyle=elbowEdgeStyle;elbow=vertical;" parent="1" source="ZCTDzKZPOZG22ShxwnUD-16" target="ZCTDzKZPOZG22ShxwnUD-9" edge="1">
                    <mxGeometry width="160" relative="1" as="geometry">
                        <mxPoint x="330" y="370" as="sourcePoint"/>
                        <mxPoint x="490" y="370" as="targetPoint"/>
                    </mxGeometry>
                </mxCell>
                <mxCell id="ZCTDzKZPOZG22ShxwnUD-23" value="" style="endArrow=block;endSize=16;endFill=0;html=1;rounded=0;edgeStyle=elbowEdgeStyle;elbow=vertical;" parent="1" source="ZCTDzKZPOZG22ShxwnUD-16" target="ZCTDzKZPOZG22ShxwnUD-18" edge="1">
                    <mxGeometry width="160" relative="1" as="geometry">
                        <mxPoint x="330" y="370" as="sourcePoint"/>
                        <mxPoint x="490" y="370" as="targetPoint"/>
                    </mxGeometry>
                </mxCell>
                <mxCell id="ZCTDzKZPOZG22ShxwnUD-24" value="Obstacle" style="swimlane;fontStyle=1;align=center;verticalAlign=top;childLayout=stackLayout;horizontal=1;startSize=26;horizontalStack=0;resizeParent=1;resizeParentMax=0;resizeLast=0;collapsible=1;marginBottom=0;whiteSpace=wrap;html=1;fillColor=#60a917;fontColor=#ffffff;strokeColor=#2D7600;" parent="1" vertex="1">
                    <mxGeometry x="760" y="360" width="160" height="34" as="geometry"/>
                </mxCell>
                <mxCell id="ZCTDzKZPOZG22ShxwnUD-26" value="" style="line;strokeWidth=1;fillColor=none;align=left;verticalAlign=middle;spacingTop=-1;spacingLeft=3;spacingRight=3;rotatable=0;labelPosition=right;points=[];portConstraint=eastwest;strokeColor=inherit;" parent="ZCTDzKZPOZG22ShxwnUD-24" vertex="1">
                    <mxGeometry y="26" width="160" height="8" as="geometry"/>
                </mxCell>
                <mxCell id="ZCTDzKZPOZG22ShxwnUD-28" value="" style="endArrow=block;endSize=16;endFill=0;html=1;rounded=0;edgeStyle=elbowEdgeStyle;elbow=vertical;" parent="1" source="ZCTDzKZPOZG22ShxwnUD-4" target="ZCTDzKZPOZG22ShxwnUD-24" edge="1">
                    <mxGeometry width="160" relative="1" as="geometry">
                        <mxPoint x="330" y="370" as="sourcePoint"/>
                        <mxPoint x="830" y="420" as="targetPoint"/>
                    </mxGeometry>
                </mxCell>
                <mxCell id="ZCTDzKZPOZG22ShxwnUD-29" value="Bullet" style="swimlane;fontStyle=1;align=center;verticalAlign=top;childLayout=stackLayout;horizontal=1;startSize=26;horizontalStack=0;resizeParent=1;resizeParentMax=0;resizeLast=0;collapsible=1;marginBottom=0;whiteSpace=wrap;html=1;" parent="1" vertex="1">
                    <mxGeometry x="-530" y="600" width="160" height="86" as="geometry"/>
                </mxCell>
                <mxCell id="ZCTDzKZPOZG22ShxwnUD-30" value="owner: Entity" style="text;strokeColor=none;fillColor=none;align=left;verticalAlign=top;spacingLeft=4;spacingRight=4;overflow=hidden;rotatable=0;points=[[0,0.5],[1,0.5]];portConstraint=eastwest;whiteSpace=wrap;html=1;" parent="ZCTDzKZPOZG22ShxwnUD-29" vertex="1">
                    <mxGeometry y="26" width="160" height="26" as="geometry"/>
                </mxCell>
                <mxCell id="ZCTDzKZPOZG22ShxwnUD-31" value="" style="line;strokeWidth=1;fillColor=none;align=left;verticalAlign=middle;spacingTop=-1;spacingLeft=3;spacingRight=3;rotatable=0;labelPosition=right;points=[];portConstraint=eastwest;strokeColor=inherit;" parent="ZCTDzKZPOZG22ShxwnUD-29" vertex="1">
                    <mxGeometry y="52" width="160" height="8" as="geometry"/>
                </mxCell>
                <mxCell id="ZCTDzKZPOZG22ShxwnUD-32" value="+ method(type): type" style="text;strokeColor=none;fillColor=none;align=left;verticalAlign=top;spacingLeft=4;spacingRight=4;overflow=hidden;rotatable=0;points=[[0,0.5],[1,0.5]];portConstraint=eastwest;whiteSpace=wrap;html=1;" parent="ZCTDzKZPOZG22ShxwnUD-29" vertex="1">
                    <mxGeometry y="60" width="160" height="26" as="geometry"/>
                </mxCell>
                <mxCell id="ZCTDzKZPOZG22ShxwnUD-42" value="Water" style="swimlane;fontStyle=1;align=center;verticalAlign=top;childLayout=stackLayout;horizontal=1;startSize=26;horizontalStack=0;resizeParent=1;resizeParentMax=0;resizeLast=0;collapsible=1;marginBottom=0;whiteSpace=wrap;html=1;" parent="1" vertex="1">
                    <mxGeometry x="860" y="550" width="160" height="86" as="geometry"/>
                </mxCell>
                <mxCell id="ZCTDzKZPOZG22ShxwnUD-43" value="+ field: type" style="text;strokeColor=none;fillColor=none;align=left;verticalAlign=top;spacingLeft=4;spacingRight=4;overflow=hidden;rotatable=0;points=[[0,0.5],[1,0.5]];portConstraint=eastwest;whiteSpace=wrap;html=1;" parent="ZCTDzKZPOZG22ShxwnUD-42" vertex="1">
                    <mxGeometry y="26" width="160" height="26" as="geometry"/>
                </mxCell>
                <mxCell id="ZCTDzKZPOZG22ShxwnUD-44" value="" style="line;strokeWidth=1;fillColor=none;align=left;verticalAlign=middle;spacingTop=-1;spacingLeft=3;spacingRight=3;rotatable=0;labelPosition=right;points=[];portConstraint=eastwest;strokeColor=inherit;" parent="ZCTDzKZPOZG22ShxwnUD-42" vertex="1">
                    <mxGeometry y="52" width="160" height="8" as="geometry"/>
                </mxCell>
                <mxCell id="ZCTDzKZPOZG22ShxwnUD-45" value="+ method(type): type" style="text;strokeColor=none;fillColor=none;align=left;verticalAlign=top;spacingLeft=4;spacingRight=4;overflow=hidden;rotatable=0;points=[[0,0.5],[1,0.5]];portConstraint=eastwest;whiteSpace=wrap;html=1;" parent="ZCTDzKZPOZG22ShxwnUD-42" vertex="1">
                    <mxGeometry y="60" width="160" height="26" as="geometry"/>
                </mxCell>
                <mxCell id="ZCTDzKZPOZG22ShxwnUD-50" value="" style="endArrow=block;endSize=16;endFill=0;html=1;rounded=0;edgeStyle=elbowEdgeStyle;elbow=vertical;" parent="1" source="ZCTDzKZPOZG22ShxwnUD-24" target="41" edge="1">
                    <mxGeometry width="160" relative="1" as="geometry">
                        <mxPoint x="840" y="420" as="sourcePoint"/>
                        <mxPoint x="720" y="550" as="targetPoint"/>
                    </mxGeometry>
                </mxCell>
                <mxCell id="ZCTDzKZPOZG22ShxwnUD-51" value="" style="endArrow=block;endSize=16;endFill=0;html=1;rounded=0;edgeStyle=elbowEdgeStyle;elbow=vertical;" parent="1" source="ZCTDzKZPOZG22ShxwnUD-24" target="49" edge="1">
                    <mxGeometry width="160" relative="1" as="geometry">
                        <mxPoint x="840" y="420" as="sourcePoint"/>
                        <mxPoint x="494" y="550" as="targetPoint"/>
                    </mxGeometry>
                </mxCell>
                <mxCell id="ZCTDzKZPOZG22ShxwnUD-52" value="" style="endArrow=block;endSize=16;endFill=0;html=1;rounded=0;edgeStyle=elbowEdgeStyle;elbow=vertical;" parent="1" source="ZCTDzKZPOZG22ShxwnUD-24" target="ZCTDzKZPOZG22ShxwnUD-42" edge="1">
                    <mxGeometry width="160" relative="1" as="geometry">
                        <mxPoint x="840" y="420" as="sourcePoint"/>
                        <mxPoint x="850" y="440" as="targetPoint"/>
                    </mxGeometry>
                </mxCell>
                <mxCell id="ZCTDzKZPOZG22ShxwnUD-53" value="" style="endArrow=block;endSize=16;endFill=0;html=1;rounded=0;edgeStyle=elbowEdgeStyle;elbow=vertical;exitX=0.5;exitY=1;exitDx=0;exitDy=0;" parent="1" source="ZCTDzKZPOZG22ShxwnUD-24" edge="1">
                    <mxGeometry width="160" relative="1" as="geometry">
                        <mxPoint x="840" y="420" as="sourcePoint"/>
                        <mxPoint x="1150" y="550" as="targetPoint"/>
                    </mxGeometry>
                </mxCell>
                <mxCell id="ZCTDzKZPOZG22ShxwnUD-54" value="Collectables" style="swimlane;fontStyle=1;align=center;verticalAlign=top;childLayout=stackLayout;horizontal=1;startSize=26;horizontalStack=0;resizeParent=1;resizeParentMax=0;resizeLast=0;collapsible=1;marginBottom=0;whiteSpace=wrap;html=1;" parent="1" vertex="1">
                    <mxGeometry x="-300" y="600" width="160" height="86" as="geometry"/>
                </mxCell>
                <mxCell id="ZCTDzKZPOZG22ShxwnUD-55" value="+ field: type" style="text;strokeColor=none;fillColor=none;align=left;verticalAlign=top;spacingLeft=4;spacingRight=4;overflow=hidden;rotatable=0;points=[[0,0.5],[1,0.5]];portConstraint=eastwest;whiteSpace=wrap;html=1;" parent="ZCTDzKZPOZG22ShxwnUD-54" vertex="1">
                    <mxGeometry y="26" width="160" height="26" as="geometry"/>
                </mxCell>
                <mxCell id="ZCTDzKZPOZG22ShxwnUD-56" value="" style="line;strokeWidth=1;fillColor=none;align=left;verticalAlign=middle;spacingTop=-1;spacingLeft=3;spacingRight=3;rotatable=0;labelPosition=right;points=[];portConstraint=eastwest;strokeColor=inherit;" parent="ZCTDzKZPOZG22ShxwnUD-54" vertex="1">
                    <mxGeometry y="52" width="160" height="8" as="geometry"/>
                </mxCell>
                <mxCell id="ZCTDzKZPOZG22ShxwnUD-57" value="+ method(type): type" style="text;strokeColor=none;fillColor=none;align=left;verticalAlign=top;spacingLeft=4;spacingRight=4;overflow=hidden;rotatable=0;points=[[0,0.5],[1,0.5]];portConstraint=eastwest;whiteSpace=wrap;html=1;" parent="ZCTDzKZPOZG22ShxwnUD-54" vertex="1">
                    <mxGeometry y="60" width="160" height="26" as="geometry"/>
                </mxCell>
                <mxCell id="ZCTDzKZPOZG22ShxwnUD-58" value="" style="endArrow=block;endSize=16;endFill=0;html=1;rounded=0;entryX=0.5;entryY=0;entryDx=0;entryDy=0;edgeStyle=elbowEdgeStyle;elbow=vertical;" parent="1" source="ZCTDzKZPOZG22ShxwnUD-16" target="ZCTDzKZPOZG22ShxwnUD-54" edge="1">
                    <mxGeometry width="160" relative="1" as="geometry">
                        <mxPoint x="-60" y="410" as="sourcePoint"/>
                        <mxPoint x="100" y="410" as="targetPoint"/>
                    </mxGeometry>
                </mxCell>
                <mxCell id="ZCTDzKZPOZG22ShxwnUD-59" value="" style="endArrow=block;endSize=16;endFill=0;html=1;rounded=0;entryX=0.5;entryY=0;entryDx=0;entryDy=0;edgeStyle=elbowEdgeStyle;elbow=vertical;" parent="1" source="ZCTDzKZPOZG22ShxwnUD-16" target="ZCTDzKZPOZG22ShxwnUD-29" edge="1">
                    <mxGeometry width="160" relative="1" as="geometry">
                        <mxPoint x="-60" y="410" as="sourcePoint"/>
                        <mxPoint x="100" y="410" as="targetPoint"/>
                    </mxGeometry>
                </mxCell>
                <mxCell id="ZCTDzKZPOZG22ShxwnUD-61" value="&lt;i&gt;SceneBase&lt;/i&gt;" style="swimlane;fontStyle=1;align=center;verticalAlign=top;childLayout=stackLayout;horizontal=1;startSize=26;horizontalStack=0;resizeParent=1;resizeParentMax=0;resizeLast=0;collapsible=1;marginBottom=0;whiteSpace=wrap;html=1;" parent="1" vertex="1">
                    <mxGeometry x="-10" y="990" width="160" height="120" as="geometry"/>
                </mxCell>
                <mxCell id="ZCTDzKZPOZG22ShxwnUD-63" value="" style="line;strokeWidth=1;fillColor=none;align=left;verticalAlign=middle;spacingTop=-1;spacingLeft=3;spacingRight=3;rotatable=0;labelPosition=right;points=[];portConstraint=eastwest;strokeColor=inherit;" parent="ZCTDzKZPOZG22ShxwnUD-61" vertex="1">
                    <mxGeometry y="26" width="160" height="8" as="geometry"/>
                </mxCell>
                <mxCell id="ZCTDzKZPOZG22ShxwnUD-64" value="&lt;i&gt;setup()&lt;/i&gt;&lt;div&gt;&lt;i&gt;handle_event(Event)&lt;/i&gt;&lt;/div&gt;&lt;div&gt;&lt;i&gt;update()&lt;/i&gt;&lt;/div&gt;&lt;div&gt;&lt;i&gt;render()&lt;/i&gt;&lt;/div&gt;&lt;div&gt;&lt;i&gt;cleanup()&lt;/i&gt;&lt;/div&gt;" style="text;strokeColor=none;fillColor=none;align=left;verticalAlign=top;spacingLeft=4;spacingRight=4;overflow=hidden;rotatable=0;points=[[0,0.5],[1,0.5]];portConstraint=eastwest;whiteSpace=wrap;html=1;" parent="ZCTDzKZPOZG22ShxwnUD-61" vertex="1">
                    <mxGeometry y="34" width="160" height="86" as="geometry"/>
                </mxCell>
                <mxCell id="ZCTDzKZPOZG22ShxwnUD-66" value="set_sprites.py" style="shape=note2;boundedLbl=1;whiteSpace=wrap;html=1;size=25;verticalAlign=top;align=center;" parent="1" vertex="1">
                    <mxGeometry x="460" width="120" height="60" as="geometry"/>
                </mxCell>
                <mxCell id="ZCTDzKZPOZG22ShxwnUD-71" value="scenes.py" style="shape=note2;boundedLbl=1;whiteSpace=wrap;html=1;size=25;verticalAlign=top;align=center;" parent="1" vertex="1">
                    <mxGeometry x="1210" y="700" width="120" height="60" as="geometry"/>
                </mxCell>
                <mxCell id="ZCTDzKZPOZG22ShxwnUD-72" value="scenes.py" style="shape=note2;boundedLbl=1;whiteSpace=wrap;html=1;size=25;verticalAlign=top;align=center;" parent="1" vertex="1">
                    <mxGeometry x="180" y="920" width="120" height="60" as="geometry"/>
                </mxCell>
                <mxCell id="ZCTDzKZPOZG22ShxwnUD-73" value="strategies.py" style="shape=note2;boundedLbl=1;whiteSpace=wrap;html=1;size=25;verticalAlign=top;align=center;" parent="1" vertex="1">
                    <mxGeometry x="-450" y="800" width="120" height="60" as="geometry"/>
                </mxCell>
                <mxCell id="-n0B8oos-xR3CxmiQHSn-1" value="" style="endArrow=none;dashed=1;html=1;rounded=0;entryX=0;entryY=0.5;entryDx=0;entryDy=0;entryPerimeter=0;" parent="1" source="59" target="ZCTDzKZPOZG22ShxwnUD-73" edge="1">
                    <mxGeometry width="50" height="50" relative="1" as="geometry">
                        <mxPoint x="-560" y="873" as="sourcePoint"/>
                        <mxPoint x="-170" y="860" as="targetPoint"/>
                    </mxGeometry>
                </mxCell>
                <mxCell id="-n0B8oos-xR3CxmiQHSn-3" value="" style="endArrow=none;dashed=1;html=1;rounded=0;entryX=0;entryY=0.5;entryDx=0;entryDy=0;entryPerimeter=0;exitX=0.5;exitY=0;exitDx=0;exitDy=0;" parent="1" source="ZCTDzKZPOZG22ShxwnUD-61" target="ZCTDzKZPOZG22ShxwnUD-72" edge="1">
                    <mxGeometry width="50" height="50" relative="1" as="geometry">
                        <mxPoint x="-240" y="1040" as="sourcePoint"/>
                        <mxPoint x="-190" y="990" as="targetPoint"/>
                    </mxGeometry>
                </mxCell>
                <mxCell id="-n0B8oos-xR3CxmiQHSn-4" value="" style="endArrow=none;dashed=1;html=1;rounded=0;entryX=0;entryY=0.5;entryDx=0;entryDy=0;entryPerimeter=0;" parent="1" source="67" target="ZCTDzKZPOZG22ShxwnUD-71" edge="1">
                    <mxGeometry width="50" height="50" relative="1" as="geometry">
                        <mxPoint x="1060" y="819.9999999999998" as="sourcePoint"/>
                        <mxPoint x="960" y="720" as="targetPoint"/>
                    </mxGeometry>
                </mxCell>
                <mxCell id="-n0B8oos-xR3CxmiQHSn-5" value="" style="endArrow=none;dashed=1;html=1;rounded=0;entryX=0;entryY=0.5;entryDx=0;entryDy=0;entryPerimeter=0;exitX=0.5;exitY=0;exitDx=0;exitDy=0;" parent="1" source="ZCTDzKZPOZG22ShxwnUD-1" target="ZCTDzKZPOZG22ShxwnUD-66" edge="1">
                    <mxGeometry width="50" height="50" relative="1" as="geometry">
                        <mxPoint x="500" y="160" as="sourcePoint"/>
                        <mxPoint x="550" y="110" as="targetPoint"/>
                    </mxGeometry>
                </mxCell>
                <mxCell id="12" value="" style="endArrow=block;endSize=16;endFill=0;html=1;edgeStyle=elbowEdgeStyle;elbow=vertical;rounded=0;curved=0;" parent="1" source="69" target="75" edge="1">
                    <mxGeometry width="160" relative="1" as="geometry">
                        <mxPoint x="1060" y="905.9999999999998" as="sourcePoint"/>
                        <mxPoint x="1190" y="980" as="targetPoint"/>
                    </mxGeometry>
                </mxCell>
                <mxCell id="13" value="" style="endArrow=block;endSize=16;endFill=0;html=1;edgeStyle=elbowEdgeStyle;elbow=vertical;rounded=0;curved=0;" parent="1" source="69" target="71" edge="1">
                    <mxGeometry width="160" relative="1" as="geometry">
                        <mxPoint x="1060" y="905.9999999999998" as="sourcePoint"/>
                        <mxPoint x="915" y="980" as="targetPoint"/>
                    </mxGeometry>
                </mxCell>
                <mxCell id="18" value="" style="endArrow=block;endSize=16;endFill=0;html=1;elbow=vertical;rounded=0;edgeStyle=elbowEdgeStyle;" parent="1" source="62" target="63" edge="1">
                    <mxGeometry width="160" relative="1" as="geometry">
                        <mxPoint x="-563.3548387096774" y="933.0000000000002" as="sourcePoint"/>
                        <mxPoint x="-600" y="1032" as="targetPoint"/>
                    </mxGeometry>
                </mxCell>
                <mxCell id="23" value="возможно стоит добавить родителя Танк" style="shape=note2;boundedLbl=1;whiteSpace=wrap;html=1;size=25;verticalAlign=top;align=center;" parent="1" vertex="1">
                    <mxGeometry x="160" y="760" width="124" height="80" as="geometry"/>
                </mxCell>
                <mxCell id="25" value="" style="endArrow=none;dashed=1;html=1;elbow=vertical;" parent="1" source="ZCTDzKZPOZG22ShxwnUD-9" target="23" edge="1">
                    <mxGeometry width="50" height="50" relative="1" as="geometry">
                        <mxPoint x="20" y="560" as="sourcePoint"/>
                        <mxPoint x="70" y="510" as="targetPoint"/>
                    </mxGeometry>
                </mxCell>
                <mxCell id="26" value="" style="endArrow=none;dashed=1;html=1;elbow=vertical;" parent="1" source="ZCTDzKZPOZG22ShxwnUD-18" target="23" edge="1">
                    <mxGeometry width="50" height="50" relative="1" as="geometry">
                        <mxPoint x="30" y="690" as="sourcePoint"/>
                        <mxPoint x="80" y="640" as="targetPoint"/>
                    </mxGeometry>
                </mxCell>
                <mxCell id="27" value="Карта - 26х26 маленьких тайлов (по 8)&lt;br&gt;Для стандартного разрешения НЕС 256х240 тогда выходит худ 32 пикселя справа и по 16 с других сторон&lt;br&gt;" style="shape=note2;boundedLbl=1;whiteSpace=wrap;html=1;size=25;verticalAlign=top;align=center;" parent="1" vertex="1">
                    <mxGeometry x="470" y="1000" width="230" height="100" as="geometry"/>
                </mxCell>
                <mxCell id="36" value="" style="endArrow=none;dashed=1;html=1;elbow=vertical;" parent="1" source="76" target="27" edge="1">
                    <mxGeometry width="50" height="50" relative="1" as="geometry">
                        <mxPoint x="1270" y="1018.2835820895523" as="sourcePoint"/>
                        <mxPoint x="1430" y="960" as="targetPoint"/>
                    </mxGeometry>
                </mxCell>
                <mxCell id="37" value="pygame.sprite.Sprite" style="html=1;whiteSpace=wrap;dashed=1;fillColor=#647687;fontColor=#ffffff;strokeColor=#314354;" vertex="1" parent="1">
                    <mxGeometry x="20" y="15" width="170" height="30" as="geometry"/>
                </mxCell>
                <mxCell id="38" value="" style="endArrow=block;endSize=16;endFill=0;html=1;edgeStyle=elbowEdgeStyle;elbow=vertical;entryX=0.5;entryY=0;entryDx=0;entryDy=0;rounded=0;curved=0;" edge="1" parent="1" source="37" target="ZCTDzKZPOZG22ShxwnUD-1">
                    <mxGeometry width="160" relative="1" as="geometry">
                        <mxPoint x="380" y="190" as="sourcePoint"/>
                        <mxPoint x="540" y="190" as="targetPoint"/>
                    </mxGeometry>
                </mxCell>
                <mxCell id="39" value="просто объединяет препятствия" style="shape=note2;boundedLbl=1;whiteSpace=wrap;html=1;size=25;verticalAlign=top;align=center;" vertex="1" parent="1">
                    <mxGeometry x="980" y="280" width="120" height="70" as="geometry"/>
                </mxCell>
                <mxCell id="40" value="" style="endArrow=none;dashed=1;html=1;elbow=vertical;" edge="1" parent="1" source="ZCTDzKZPOZG22ShxwnUD-24" target="39">
                    <mxGeometry width="50" height="50" relative="1" as="geometry">
                        <mxPoint x="960" y="430" as="sourcePoint"/>
                        <mxPoint x="1010" y="380" as="targetPoint"/>
                    </mxGeometry>
                </mxCell>
                <mxCell id="41" value="Wall" style="swimlane;fontStyle=1;align=center;verticalAlign=top;childLayout=stackLayout;horizontal=1;startSize=26;horizontalStack=0;resizeParent=1;resizeParentMax=0;resizeLast=0;collapsible=1;marginBottom=0;fillColor=#60a917;fontColor=#ffffff;strokeColor=#2D7600;" vertex="1" parent="1">
                    <mxGeometry x="640" y="550" width="160" height="34" as="geometry"/>
                </mxCell>
                <mxCell id="43" value="" style="line;strokeWidth=1;fillColor=none;align=left;verticalAlign=middle;spacingTop=-1;spacingLeft=3;spacingRight=3;rotatable=0;labelPosition=right;points=[];portConstraint=eastwest;strokeColor=inherit;" vertex="1" parent="41">
                    <mxGeometry y="26" width="160" height="8" as="geometry"/>
                </mxCell>
                <mxCell id="45" value="Base" style="swimlane;fontStyle=1;align=center;verticalAlign=top;childLayout=stackLayout;horizontal=1;startSize=26;horizontalStack=0;resizeParent=1;resizeParentMax=0;resizeLast=0;collapsible=1;marginBottom=0;fillColor=#e3c800;strokeColor=#B09500;fontColor=#000000;" vertex="1" parent="1">
                    <mxGeometry x="1060" y="550" width="160" height="60" as="geometry"/>
                </mxCell>
                <mxCell id="47" value="" style="line;strokeWidth=1;fillColor=none;align=left;verticalAlign=middle;spacingTop=-1;spacingLeft=3;spacingRight=3;rotatable=0;labelPosition=right;points=[];portConstraint=eastwest;strokeColor=inherit;" vertex="1" parent="45">
                    <mxGeometry y="26" width="160" height="8" as="geometry"/>
                </mxCell>
                <mxCell id="48" value="gameover()" style="text;strokeColor=none;fillColor=none;align=left;verticalAlign=top;spacingLeft=4;spacingRight=4;overflow=hidden;rotatable=0;points=[[0,0.5],[1,0.5]];portConstraint=eastwest;" vertex="1" parent="45">
                    <mxGeometry y="34" width="160" height="26" as="geometry"/>
                </mxCell>
                <mxCell id="49" value="Brick" style="swimlane;fontStyle=1;align=center;verticalAlign=top;childLayout=stackLayout;horizontal=1;startSize=26;horizontalStack=0;resizeParent=1;resizeParentMax=0;resizeLast=0;collapsible=1;marginBottom=0;" vertex="1" parent="1">
                    <mxGeometry x="414" y="550" width="160" height="60" as="geometry"/>
                </mxCell>
                <mxCell id="51" value="" style="line;strokeWidth=1;fillColor=none;align=left;verticalAlign=middle;spacingTop=-1;spacingLeft=3;spacingRight=3;rotatable=0;labelPosition=right;points=[];portConstraint=eastwest;strokeColor=inherit;" vertex="1" parent="49">
                    <mxGeometry y="26" width="160" height="8" as="geometry"/>
                </mxCell>
                <mxCell id="52" value="destroy()" style="text;strokeColor=none;fillColor=none;align=left;verticalAlign=top;spacingLeft=4;spacingRight=4;overflow=hidden;rotatable=0;points=[[0,0.5],[1,0.5]];portConstraint=eastwest;" vertex="1" parent="49">
                    <mxGeometry y="34" width="160" height="26" as="geometry"/>
                </mxCell>
                <mxCell id="53" value="CollideManager" style="swimlane;fontStyle=1;align=center;verticalAlign=top;childLayout=stackLayout;horizontal=1;startSize=26;horizontalStack=0;resizeParent=1;resizeParentMax=0;resizeLast=0;collapsible=1;marginBottom=0;fillColor=#60a917;fontColor=#ffffff;strokeColor=#2D7600;" vertex="1" parent="1">
                    <mxGeometry x="560" y="127" width="170" height="60" as="geometry"/>
                </mxCell>
                <mxCell id="55" value="" style="line;strokeWidth=1;fillColor=none;align=left;verticalAlign=middle;spacingTop=-1;spacingLeft=3;spacingRight=3;rotatable=0;labelPosition=right;points=[];portConstraint=eastwest;strokeColor=inherit;" vertex="1" parent="53">
                    <mxGeometry y="26" width="170" height="8" as="geometry"/>
                </mxCell>
                <mxCell id="56" value="checkCollide(Entity, Obstacle)" style="text;strokeColor=none;fillColor=none;align=left;verticalAlign=top;spacingLeft=4;spacingRight=4;overflow=hidden;rotatable=0;points=[[0,0.5],[1,0.5]];portConstraint=eastwest;fontStyle=4" vertex="1" parent="53">
                    <mxGeometry y="34" width="170" height="26" as="geometry"/>
                </mxCell>
                <mxCell id="58" value="" style="endArrow=none;dashed=1;html=1;elbow=vertical;" edge="1" parent="1" source="53" target="ZCTDzKZPOZG22ShxwnUD-66">
                    <mxGeometry width="50" height="50" relative="1" as="geometry">
                        <mxPoint x="540" y="210" as="sourcePoint"/>
                        <mxPoint x="590" y="160" as="targetPoint"/>
                    </mxGeometry>
                </mxCell>
                <mxCell id="59" value="Move_Strategy" style="swimlane;fontStyle=3;align=center;verticalAlign=top;childLayout=stackLayout;horizontal=1;startSize=26;horizontalStack=0;resizeParent=1;resizeParentMax=0;resizeLast=0;collapsible=1;marginBottom=0;fillColor=#60a917;fontColor=#ffffff;strokeColor=#2D7600;" vertex="1" parent="1">
                    <mxGeometry x="-680" y="860" width="160" height="94" as="geometry"/>
                </mxCell>
                <mxCell id="60" value="entity: Entity&#xa;speed: int" style="text;strokeColor=none;fillColor=none;align=left;verticalAlign=top;spacingLeft=4;spacingRight=4;overflow=hidden;rotatable=0;points=[[0,0.5],[1,0.5]];portConstraint=eastwest;" vertex="1" parent="59">
                    <mxGeometry y="26" width="160" height="34" as="geometry"/>
                </mxCell>
                <mxCell id="61" value="" style="line;strokeWidth=1;fillColor=none;align=left;verticalAlign=middle;spacingTop=-1;spacingLeft=3;spacingRight=3;rotatable=0;labelPosition=right;points=[];portConstraint=eastwest;strokeColor=inherit;" vertex="1" parent="59">
                    <mxGeometry y="60" width="160" height="8" as="geometry"/>
                </mxCell>
                <mxCell id="62" value="move(obstacles)" style="text;strokeColor=none;fillColor=none;align=left;verticalAlign=top;spacingLeft=4;spacingRight=4;overflow=hidden;rotatable=0;points=[[0,0.5],[1,0.5]];portConstraint=eastwest;fontStyle=2" vertex="1" parent="59">
                    <mxGeometry y="68" width="160" height="26" as="geometry"/>
                </mxCell>
                <mxCell id="63" value="Control_Strategy" style="swimlane;fontStyle=1;align=center;verticalAlign=top;childLayout=stackLayout;horizontal=1;startSize=26;horizontalStack=0;resizeParent=1;resizeParentMax=0;resizeLast=0;collapsible=1;marginBottom=0;fillColor=#60a917;fontColor=#ffffff;strokeColor=#2D7600;" vertex="1" parent="1">
                    <mxGeometry x="-695" y="1020" width="190" height="70" as="geometry"/>
                </mxCell>
                <mxCell id="65" value="" style="line;strokeWidth=1;fillColor=none;align=left;verticalAlign=middle;spacingTop=-1;spacingLeft=3;spacingRight=3;rotatable=0;labelPosition=right;points=[];portConstraint=eastwest;strokeColor=inherit;" vertex="1" parent="63">
                    <mxGeometry y="26" width="190" height="8" as="geometry"/>
                </mxCell>
                <mxCell id="66" value="move_player(string, Obstacles[])&#xa;move(obstacles)" style="text;strokeColor=none;fillColor=none;align=left;verticalAlign=top;spacingLeft=4;spacingRight=4;overflow=hidden;rotatable=0;points=[[0,0.5],[1,0.5]];portConstraint=eastwest;" vertex="1" parent="63">
                    <mxGeometry y="34" width="190" height="36" as="geometry"/>
                </mxCell>
                <mxCell id="67" value="&lt;i&gt;SceneBase&lt;/i&gt;" style="swimlane;fontStyle=1;align=center;verticalAlign=top;childLayout=stackLayout;horizontal=1;startSize=26;horizontalStack=0;resizeParent=1;resizeParentMax=0;resizeLast=0;collapsible=1;marginBottom=0;whiteSpace=wrap;html=1;fillColor=#60a917;fontColor=#ffffff;strokeColor=#2D7600;" vertex="1" parent="1">
                    <mxGeometry x="970" y="780" width="160" height="120" as="geometry"/>
                </mxCell>
                <mxCell id="68" value="" style="line;strokeWidth=1;fillColor=none;align=left;verticalAlign=middle;spacingTop=-1;spacingLeft=3;spacingRight=3;rotatable=0;labelPosition=right;points=[];portConstraint=eastwest;strokeColor=inherit;" vertex="1" parent="67">
                    <mxGeometry y="26" width="160" height="8" as="geometry"/>
                </mxCell>
                <mxCell id="69" value="&lt;i&gt;setup()&lt;/i&gt;&lt;div&gt;&lt;i&gt;handle_event(Event)&lt;/i&gt;&lt;/div&gt;&lt;div&gt;&lt;i&gt;update()&lt;/i&gt;&lt;/div&gt;&lt;div&gt;&lt;i&gt;render()&lt;/i&gt;&lt;/div&gt;&lt;div&gt;&lt;i&gt;cleanup()&lt;/i&gt;&lt;/div&gt;" style="text;strokeColor=none;fillColor=none;align=left;verticalAlign=top;spacingLeft=4;spacingRight=4;overflow=hidden;rotatable=0;points=[[0,0.5],[1,0.5]];portConstraint=eastwest;whiteSpace=wrap;html=1;" vertex="1" parent="67">
                    <mxGeometry y="34" width="160" height="86" as="geometry"/>
                </mxCell>
                <mxCell id="71" value="Menu" style="swimlane;fontStyle=1;align=center;verticalAlign=top;childLayout=stackLayout;horizontal=1;startSize=26;horizontalStack=0;resizeParent=1;resizeParentMax=0;resizeLast=0;collapsible=1;marginBottom=0;fillColor=#60a917;fontColor=#ffffff;strokeColor=#2D7600;" vertex="1" parent="1">
                    <mxGeometry x="1070" y="970" width="180" height="208" as="geometry"/>
                </mxCell>
                <mxCell id="72" value="screen: pygame.Surface&#xa;scene_manager: SceneManager&#xa;&#xa;background_color: Tuple&lt;int&gt;&#xa;menu_font: pygame.font.Font&#xa;start_button: pygame.Surface&#xa;start_button_rect: pygame.Rect&#xa;&#xa;logo: pygame.Surface&#xa;logo_rect: pygame.Rect&#xa;tank_logo: pygame.Surface&#xa;tank_logo_rect: pygame.Rect" style="text;strokeColor=none;fillColor=none;align=left;verticalAlign=top;spacingLeft=4;spacingRight=4;overflow=hidden;rotatable=0;points=[[0,0.5],[1,0.5]];portConstraint=eastwest;" vertex="1" parent="71">
                    <mxGeometry y="26" width="180" height="174" as="geometry"/>
                </mxCell>
                <mxCell id="73" value="" style="line;strokeWidth=1;fillColor=none;align=left;verticalAlign=middle;spacingTop=-1;spacingLeft=3;spacingRight=3;rotatable=0;labelPosition=right;points=[];portConstraint=eastwest;strokeColor=inherit;" vertex="1" parent="71">
                    <mxGeometry y="200" width="180" height="8" as="geometry"/>
                </mxCell>
                <mxCell id="75" value="Stage" style="swimlane;fontStyle=1;align=center;verticalAlign=top;childLayout=stackLayout;horizontal=1;startSize=26;horizontalStack=0;resizeParent=1;resizeParentMax=0;resizeLast=0;collapsible=1;marginBottom=0;fillColor=#e3c800;fontColor=#000000;strokeColor=#B09500;" vertex="1" parent="1">
                    <mxGeometry x="790" y="970" width="190" height="228" as="geometry"/>
                </mxCell>
                <mxCell id="76" value="screen: pygame.Surface&#xa;scene_manager: SceneManager&#xa;map: string&#xa;background_color: Tuple&lt;int&gt;&#xa;&#xa;top_hud: pygame.Surface&#xa;left_hud: pygame.Surface&#xa;bottom_hud: pygame.Surface&#xa;right_hud: pygame.Surface&#xa;obstacles: pygame.Rect[]&#xa;&#xa;hero: Hero&#xa;group: pygame.sprite.Group" style="text;strokeColor=none;fillColor=none;align=left;verticalAlign=top;spacingLeft=4;spacingRight=4;overflow=hidden;rotatable=0;points=[[0,0.5],[1,0.5]];portConstraint=eastwest;" vertex="1" parent="75">
                    <mxGeometry y="26" width="190" height="194" as="geometry"/>
                </mxCell>
                <mxCell id="77" value="" style="line;strokeWidth=1;fillColor=none;align=left;verticalAlign=middle;spacingTop=-1;spacingLeft=3;spacingRight=3;rotatable=0;labelPosition=right;points=[];portConstraint=eastwest;strokeColor=inherit;" vertex="1" parent="75">
                    <mxGeometry y="220" width="190" height="8" as="geometry"/>
                </mxCell>
                <mxCell id="79" value="" style="endArrow=none;dashed=1;html=1;elbow=vertical;" edge="1" parent="1" source="ZCTDzKZPOZG22ShxwnUD-71" target="80">
                    <mxGeometry width="50" height="50" relative="1" as="geometry">
                        <mxPoint x="1360" y="760" as="sourcePoint"/>
                        <mxPoint x="1410" y="710" as="targetPoint"/>
                    </mxGeometry>
                </mxCell>
                <mxCell id="80" value="SceneManager" style="swimlane;fontStyle=1;align=center;verticalAlign=top;childLayout=stackLayout;horizontal=1;startSize=26;horizontalStack=0;resizeParent=1;resizeParentMax=0;resizeLast=0;collapsible=1;marginBottom=0;fillColor=#60a917;fontColor=#ffffff;strokeColor=#2D7600;" vertex="1" parent="1">
                    <mxGeometry x="1380" y="790" width="190" height="130" as="geometry"/>
                </mxCell>
                <mxCell id="81" value="screen: pygame.Surface&#xa;scenes: Dict&lt;string, SceneBase&gt;&#xa;current_scene: SceneBase" style="text;strokeColor=none;fillColor=none;align=left;verticalAlign=top;spacingLeft=4;spacingRight=4;overflow=hidden;rotatable=0;points=[[0,0.5],[1,0.5]];portConstraint=eastwest;" vertex="1" parent="80">
                    <mxGeometry y="26" width="190" height="44" as="geometry"/>
                </mxCell>
                <mxCell id="82" value="" style="line;strokeWidth=1;fillColor=none;align=left;verticalAlign=middle;spacingTop=-1;spacingLeft=3;spacingRight=3;rotatable=0;labelPosition=right;points=[];portConstraint=eastwest;strokeColor=inherit;" vertex="1" parent="80">
                    <mxGeometry y="70" width="190" height="8" as="geometry"/>
                </mxCell>
                <mxCell id="83" value="add_scene(string, SceneBase)&#xa;switch_scene(string)&#xa;run_current_scene()" style="text;strokeColor=none;fillColor=none;align=left;verticalAlign=top;spacingLeft=4;spacingRight=4;overflow=hidden;rotatable=0;points=[[0,0.5],[1,0.5]];portConstraint=eastwest;" vertex="1" parent="80">
                    <mxGeometry y="78" width="190" height="52" as="geometry"/>
                </mxCell>
            </root>
        </mxGraphModel>
    </diagram>
</mxfile>